<?xml version="1.0"?>
<svg xmlns="http://www.w3.org/2000/svg" xmlns:xlink="http://www.w3.org/1999/xlink" version="1.1" id="Layer_1" x="0px" y="0px" viewBox="0 0 512 512" style="enable-background:new 0 0 512 512;" xml:space="preserve" width="512px" height="512px" class=""><g><path style="fill:#57BEEA" d="M324.152,2.669C322.594,0.968,320.395,0,318.089,0H197.086c-2.287,0-4.471,0.953-6.027,2.629  c-1.556,1.676-2.344,3.925-2.173,6.205l11.771,157.876c0.32,4.292,3.896,7.611,8.201,7.611h95.383c4.263,0,7.819-3.257,8.192-7.505  L326.282,8.941C326.482,6.645,325.71,4.368,324.152,2.669z" data-original="#4ACFD9" class="" data-old_color="#27AAE1"/><path style="fill:#CCDDDF" d="M312.364,164.829H199.636l-21.927,140.334c-0.263,1.688,0.005,3.417,0.77,4.947l69.299,138.597  V287.86c-8.333-3.291-14.253-11.408-14.253-20.897c0-12.393,10.082-22.475,22.475-22.475s22.475,10.082,22.475,22.475  c0,9.489-5.919,17.605-14.253,20.897v160.847l69.299-138.597c0.764-1.528,1.033-3.258,0.77-4.947L312.364,164.829z" data-original="#FFD1A9" class="active-path" data-old_color="#9BAAAB"/><path style="fill:#27AAE1" d="M197.086,0c-2.287,0-4.471,0.953-6.027,2.629c-1.556,1.676-2.344,3.925-2.173,6.205l11.771,157.876  c0.32,4.292,3.896,7.611,8.201,7.611h47.143V0H197.086z" data-original="#0295AA" class="" data-old_color="#0295AA"/><path style="fill:#9BAAAB" d="M199.636,164.829l-21.927,140.334c-0.263,1.688,0.005,3.417,0.77,4.947l69.299,138.597V287.86  c-8.333-3.291-14.253-11.408-14.253-20.897c0-12.393,10.082-22.475,22.475-22.475v-79.659L199.636,164.829L199.636,164.829z" data-original="#FF8C29" class="" data-old_color="#FF8C29"/><path style="fill:#9BAAAB;" d="M374.407,490.073H137.593c-4.542,0-8.223-3.682-8.223-8.223c0-4.541,3.68-8.223,8.223-8.223h236.814  c4.542,0,8.223,3.682,8.223,8.223C382.63,486.391,378.949,490.073,374.407,490.073z" data-original="#9BAAAB" class=""/><g>
	<path style="fill:#9BAAAB" d="M137.593,451.7H93.739c-4.542,0-8.223,3.682-8.223,8.223v43.854c0,4.541,3.68,8.223,8.223,8.223   h43.854c4.542,0,8.223-3.682,8.223-8.223v-43.854C145.816,455.382,142.135,451.7,137.593,451.7z" data-original="#F0353D" class="" data-old_color="#885656"/>
	<path style="fill:#9BAAAB" d="M418.261,451.7h-43.854c-4.542,0-8.223,3.682-8.223,8.223v43.854c0,4.541,3.68,8.223,8.223,8.223   h43.854c4.542,0,8.223-3.682,8.223-8.223v-43.854C426.484,455.382,422.803,451.7,418.261,451.7z" data-original="#F0353D" class="" data-old_color="#885656"/>
</g><path style="fill:#27AAE1" d="M256,472.531c-115.769,0-209.953-94.185-209.953-209.953c0-4.541,3.68-8.223,8.223-8.223  s8.223,3.682,8.223,8.223c0,106.7,86.808,193.507,193.507,193.507s193.507-86.808,193.507-193.507c0-4.541,3.68-8.223,8.223-8.223  c4.542,0,8.223,3.682,8.223,8.223C465.953,378.346,371.769,472.531,256,472.531z" data-original="#365558" class="" data-old_color="#365558"/></g> </svg>
